<svg xmlns="http://www.w3.org/2000/svg" xmlns:xlink="http://www.w3.org/1999/xlink" width="2000" zoomAndPan="magnify" viewBox="0 0 1500 1499.999933" height="2000" preserveAspectRatio="xMidYMid meet" version="1.0"><defs><g/><clipPath id="e024810d69"><path d="M 718 232 L 1283.25 232 L 1283.25 1135 L 718 1135 Z M 718 232 " clip-rule="nonzero"/></clipPath></defs><path fill="#345351" d="M 410.859375 715.359375 L 730.570312 715.359375 C 745.589844 715.359375 757.941406 727.710938 757.941406 742.730469 C 757.941406 757.746094 745.589844 770.097656 730.570312 770.097656 L 410.859375 770.097656 C 395.839844 770.097656 383.488281 757.746094 383.488281 742.730469 C 383.488281 727.46875 395.839844 715.359375 410.859375 715.359375 " fill-opacity="1" fill-rule="evenodd"/><path fill="#345351" d="M 410.859375 832.832031 L 886.554688 832.832031 C 901.570312 832.832031 913.921875 845.183594 913.921875 860.199219 C 913.921875 875.21875 901.570312 887.570312 886.554688 887.570312 L 410.859375 887.570312 C 395.839844 887.570312 383.488281 875.214844 383.488281 860.199219 C 383.488281 845.183594 395.839844 832.832031 410.859375 832.832031 " fill-opacity="1" fill-rule="evenodd"/><path fill="#345351" d="M 410.859375 597.890625 L 828.421875 597.890625 C 843.441406 597.890625 855.792969 610.242188 855.792969 625.257812 C 855.792969 640.277344 843.441406 652.628906 828.421875 652.628906 L 410.859375 652.628906 C 395.839844 652.628906 383.488281 640.277344 383.488281 625.257812 C 383.488281 610 395.839844 597.890625 410.859375 597.890625 " fill-opacity="1" fill-rule="evenodd"/><g clip-path="url(#e024810d69)"><path fill="#171f4e" d="M 906.414062 1028.777344 L 1036.238281 1028.777344 C 1074.023438 1028.777344 1110.109375 1013.515625 1136.753906 986.875 C 1145.472656 978.15625 1152.980469 968.464844 1159.277344 957.808594 L 1160.246094 956.355469 L 1160.972656 954.902344 C 1162.425781 952.480469 1163.636719 949.816406 1164.847656 947.152344 C 1166.0625 944.488281 1167.273438 941.824219 1168.242188 939.160156 L 1169.453125 936.011719 L 1173.328125 922.449219 L 1174.054688 919.054688 L 1175.023438 915.664062 L 1175.265625 913.96875 L 1175.992188 910.578125 L 1178.171875 895.320312 L 1178.171875 472.910156 L 1175.992188 457.652344 L 1175.265625 454.261719 L 1175.023438 452.566406 L 1174.539062 450.871094 L 1174.78125 448.445312 L 1174.054688 445.054688 L 1170.664062 433.1875 L 1169.695312 431.734375 L 1168.484375 428.585938 C 1167.273438 425.921875 1166.0625 423.257812 1164.847656 420.59375 C 1163.636719 417.929688 1162.183594 415.507812 1160.972656 412.84375 L 1159.035156 409.9375 C 1152.738281 399.519531 1145.230469 389.589844 1136.511719 380.871094 C 1109.867188 354.226562 1073.78125 338.96875 1035.996094 338.96875 L 743.410156 338.96875 L 718.460938 232.882812 L 1038.175781 232.882812 C 1042.535156 232.882812 1046.894531 233.125 1051.496094 233.367188 L 1054.886719 233.367188 C 1057.792969 233.609375 1060.941406 233.851562 1063.847656 234.09375 L 1064.089844 234.09375 L 1065.785156 234.335938 L 1067.238281 234.578125 C 1070.386719 235.0625 1073.296875 235.304688 1076.203125 235.789062 L 1079.109375 236.273438 C 1082.015625 236.757812 1085.164062 237.484375 1088.070312 237.96875 L 1090.976562 238.453125 C 1093.882812 239.179688 1096.789062 239.90625 1099.695312 240.632812 L 1100.90625 240.875 L 1102.601562 241.359375 L 1103.8125 241.601562 L 1105.507812 242.085938 C 1109.382812 243.296875 1113.257812 244.507812 1117.132812 245.71875 L 1118.101562 246.203125 L 1119.800781 246.929688 L 1120.769531 247.414062 L 1122.464844 248.140625 L 1125.371094 249.351562 L 1126.339844 249.59375 L 1128.277344 250.320312 L 1131.183594 251.53125 L 1132.152344 252.015625 L 1134.089844 252.742188 L 1135.058594 253.226562 L 1136.996094 253.953125 C 1139.660156 255.164062 1142.566406 256.375 1145.230469 257.828125 L 1145.957031 258.070312 L 1147.894531 259.039062 L 1150.558594 260.496094 L 1151.285156 260.738281 L 1153.222656 261.707031 L 1153.949219 261.949219 L 1155.886719 263.160156 L 1156.371094 263.402344 L 1158.308594 264.613281 L 1160.730469 266.066406 L 1160.972656 266.308594 L 1161.457031 266.550781 L 1163.398438 267.761719 L 1163.882812 268.003906 L 1166.0625 269.214844 L 1166.546875 269.457031 L 1168.726562 270.667969 L 1173.8125 274.058594 L 1174.296875 274.300781 L 1176.476562 275.753906 L 1178.898438 277.449219 L 1179.140625 277.691406 L 1181.320312 279.144531 L 1181.5625 279.386719 L 1183.742188 281.082031 L 1183.984375 281.324219 L 1186.164062 283.019531 L 1186.648438 283.746094 L 1188.828125 285.441406 L 1189.070312 285.683594 L 1191.25 287.378906 L 1191.492188 287.621094 L 1193.671875 289.316406 L 1193.914062 289.558594 L 1196.09375 291.253906 L 1196.335938 291.496094 L 1198.515625 293.433594 L 1198.757812 293.433594 L 1205.296875 299.246094 L 1211.835938 305.785156 L 1214.015625 307.96875 L 1216.199219 310.148438 L 1220.558594 314.507812 L 1222.496094 316.6875 L 1226.371094 321.53125 L 1230.246094 326.132812 L 1234.121094 330.976562 C 1236.058594 333.398438 1237.753906 335.820312 1239.449219 338.242188 L 1244.535156 345.507812 L 1247.925781 350.835938 C 1249.378906 353.984375 1250.832031 356.410156 1252.285156 359.074219 L 1258.097656 369.730469 L 1260.765625 375.058594 L 1265.609375 385.714844 L 1268.03125 391.527344 C 1269.484375 395.402344 1270.9375 399.035156 1272.148438 402.914062 L 1275.054688 411.632812 C 1275.78125 414.539062 1276.75 417.445312 1277.476562 420.351562 L 1278.203125 423.257812 L 1278.445312 426.648438 L 1279.898438 432.460938 L 1282.320312 446.992188 L 1282.804688 449.902344 L 1283.53125 455.957031 L 1284.015625 462.253906 L 1284.5 468.308594 L 1284.742188 471.457031 L 1284.742188 895.320312 L 1284.5 898.46875 L 1284.015625 904.523438 L 1283.53125 910.820312 L 1282.804688 916.875 L 1281.835938 922.6875 L 1281.351562 925.597656 L 1279.898438 934.316406 L 1276.992188 945.941406 C 1276.265625 948.847656 1275.539062 951.753906 1274.570312 954.660156 L 1271.664062 963.378906 C 1270.453125 967.253906 1269 970.890625 1267.546875 974.765625 L 1265.125 980.578125 L 1260.28125 991.234375 L 1257.613281 996.5625 L 1251.800781 1007.21875 C 1250.347656 1009.882812 1248.652344 1012.546875 1247.199219 1014.972656 L 1245.503906 1017.636719 L 1238.722656 1027.324219 C 1237.027344 1029.746094 1235.089844 1032.167969 1233.394531 1034.589844 L 1229.519531 1039.433594 C 1228.308594 1041.128906 1226.855469 1042.582031 1225.644531 1044.035156 L 1219.832031 1050.574219 L 1215.472656 1054.933594 L 1213.289062 1057.113281 L 1208.929688 1061.472656 L 1206.75 1063.65625 L 1204.570312 1065.835938 L 1198.03125 1071.648438 L 1197.789062 1071.648438 L 1195.609375 1073.585938 L 1195.367188 1073.828125 L 1193.1875 1075.523438 L 1192.945312 1075.765625 L 1190.765625 1077.460938 L 1190.523438 1077.703125 L 1188.34375 1079.398438 L 1188.101562 1079.640625 L 1185.921875 1081.335938 L 1185.679688 1081.578125 L 1183.5 1083.273438 L 1183.257812 1083.515625 L 1181.078125 1085.210938 L 1180.835938 1085.453125 L 1178.65625 1086.90625 L 1178.414062 1087.148438 L 1175.992188 1088.84375 L 1173.8125 1090.296875 L 1173.328125 1090.539062 L 1168.242188 1093.929688 L 1166.0625 1095.140625 L 1165.578125 1095.382812 L 1163.394531 1096.59375 L 1162.910156 1096.835938 L 1160.972656 1098.046875 L 1160.488281 1098.289062 L 1160.246094 1098.53125 L 1157.824219 1099.984375 L 1155.886719 1101.195312 L 1155.402344 1101.4375 L 1153.464844 1102.648438 L 1152.738281 1102.890625 L 1150.800781 1103.859375 L 1150.074219 1104.101562 L 1147.410156 1105.554688 L 1145.472656 1106.523438 L 1144.746094 1106.765625 C 1142.082031 1108.21875 1139.175781 1109.429688 1136.511719 1110.640625 L 1134.574219 1111.367188 L 1133.605469 1111.851562 L 1131.667969 1112.578125 L 1130.699219 1113.0625 L 1128.519531 1116.941406 L 1126.582031 1117.667969 L 1125.613281 1118.152344 L 1122.707031 1119.121094 L 1121.011719 1119.847656 L 1120.042969 1120.332031 L 1118.34375 1121.058594 L 1117.375 1121.300781 C 1113.5 1122.511719 1109.625 1123.964844 1105.75 1124.933594 L 1104.054688 1125.417969 L 1102.84375 1125.660156 L 1101.148438 1126.144531 L 1099.9375 1126.386719 C 1097.03125 1127.113281 1094.125 1127.839844 1091.21875 1128.566406 L 1089.28125 1129.050781 L 1087.828125 1129.292969 C 1084.921875 1130.019531 1081.773438 1130.503906 1078.867188 1130.988281 L 1075.960938 1131.472656 C 1073.054688 1131.957031 1069.902344 1132.441406 1066.996094 1132.683594 L 1065.542969 1132.925781 L 1063.847656 1133.167969 L 1063.605469 1133.167969 C 1060.699219 1133.410156 1057.550781 1133.652344 1054.644531 1133.894531 L 1051.253906 1133.894531 C 1046.894531 1134.136719 1042.535156 1134.378906 1037.933594 1134.378906 L 931.121094 1134.378906 Z M 906.414062 1028.777344 " fill-opacity="1" fill-rule="evenodd"/></g><path fill="#345351" d="M 843.441406 1057.355469 L 861.847656 1134.621094 L 893.335938 1267.835938 L 685.277344 1134.621094 L 398.503906 1134.621094 C 332.382812 1134.621094 269.652344 1108.460938 222.90625 1061.714844 C 176.160156 1015.210938 150 952.480469 150 886.359375 L 150 481.386719 C 150 415.265625 176.160156 352.53125 222.90625 305.785156 C 269.652344 259.039062 332.382812 232.882812 398.503906 232.882812 L 648.707031 232.882812 L 673.652344 338.96875 L 398.503906 338.96875 C 360.71875 338.96875 324.632812 353.984375 297.988281 380.871094 C 271.105469 407.515625 256.085938 443.601562 256.085938 481.386719 L 256.085938 886.359375 C 256.085938 924.144531 271.347656 960.230469 297.988281 986.875 C 324.632812 1013.515625 360.71875 1028.777344 398.503906 1028.777344 L 836.660156 1028.777344 Z M 843.441406 1057.355469 " fill-opacity="1" fill-rule="evenodd"/><path fill="#345351" d="M 410.859375 480.175781 L 1023.886719 480.175781 C 1038.902344 480.175781 1051.253906 492.527344 1051.253906 507.546875 C 1051.253906 522.5625 1038.902344 534.914062 1023.886719 534.914062 L 410.859375 534.914062 C 395.839844 534.914062 383.488281 522.5625 383.488281 507.546875 C 383.488281 492.527344 395.839844 480.175781 410.859375 480.175781 " fill-opacity="1" fill-rule="evenodd"/><g fill="#ffffff" fill-opacity="1"><g transform="translate(505.127163, 1428.044041)"><g><path d="M 35.28125 -40.828125 L 35.28125 0 L 10.078125 0 L 10.078125 -114.234375 L 52.921875 -114.234375 C 59.078125 -114.234375 64.816406 -112.691406 70.140625 -109.609375 C 75.460938 -106.535156 79.742188 -102.253906 82.984375 -96.765625 C 86.234375 -91.273438 87.859375 -84.890625 87.859375 -77.609375 C 87.859375 -71.234375 86.679688 -65.578125 84.328125 -60.640625 C 81.984375 -55.710938 78.847656 -51.679688 74.921875 -48.546875 C 71.003906 -45.410156 66.640625 -43.226562 61.828125 -42 L 94.578125 0 L 62.65625 0 L 35.453125 -40.828125 Z M 48.71875 -94.421875 L 35.28125 -94.421875 L 35.28125 -60.640625 L 48.71875 -60.640625 C 52.414062 -60.640625 55.859375 -62.097656 59.046875 -65.015625 C 62.242188 -67.929688 63.84375 -72.128906 63.84375 -77.609375 C 63.84375 -82.878906 62.242188 -87 59.046875 -89.96875 C 55.859375 -92.9375 52.414062 -94.421875 48.71875 -94.421875 Z M 48.71875 -94.421875 "/></g></g></g><g fill="#ffffff" fill-opacity="1"><g transform="translate(597.695141, 1428.044041)"><g><path d="M 35.28125 0 L 10.078125 0 L 10.078125 -114.234375 L 35.28125 -114.234375 Z M 35.28125 0 "/></g></g></g><g fill="#ffffff" fill-opacity="1"><g transform="translate(643.055134, 1428.044041)"><g><path d="M 114.90625 -114.234375 L 68.71875 0 L 47.046875 0 L 0.84375 -114.234375 L 28.0625 -114.234375 L 51.578125 -50.0625 L 57.796875 -32.09375 L 64.015625 -50.0625 L 87.703125 -114.234375 Z M 114.90625 -114.234375 "/></g></g></g><g fill="#ffffff" fill-opacity="1"><g transform="translate(758.807111, 1428.044041)"><g><path d="M 114.90625 -114.234375 L 68.71875 0 L 47.046875 0 L 0.84375 -114.234375 L 28.0625 -114.234375 L 51.578125 -50.0625 L 57.796875 -32.09375 L 64.015625 -50.0625 L 87.703125 -114.234375 Z M 114.90625 -114.234375 "/></g></g></g><g fill="#ffffff" fill-opacity="1"><g transform="translate(865.487118, 1428.044041)"><g><path d="M 98.28125 -57.28125 C 98.28125 -63.21875 96.710938 -68.734375 93.578125 -73.828125 C 90.441406 -78.929688 86.320312 -83.050781 81.21875 -86.1875 C 76.125 -89.320312 70.613281 -90.890625 64.6875 -90.890625 C 58.851562 -90.890625 53.359375 -89.320312 48.203125 -86.1875 C 43.054688 -83.050781 38.914062 -78.929688 35.78125 -73.828125 C 32.644531 -68.734375 31.078125 -63.21875 31.078125 -57.28125 C 31.078125 -51.457031 32.644531 -45.96875 35.78125 -40.8125 C 38.914062 -35.664062 43.054688 -31.492188 48.203125 -28.296875 C 53.359375 -25.109375 58.851562 -23.515625 64.6875 -23.515625 C 70.613281 -23.515625 76.125 -25.109375 81.21875 -28.296875 C 86.320312 -31.492188 90.441406 -35.664062 93.578125 -40.8125 C 96.710938 -45.96875 98.28125 -51.457031 98.28125 -57.28125 Z M 123.484375 -57.125 C 123.484375 -49.28125 121.914062 -41.800781 118.78125 -34.6875 C 115.644531 -27.582031 111.359375 -21.3125 105.921875 -15.875 C 100.492188 -10.445312 94.25 -6.160156 87.1875 -3.015625 C 80.132812 0.117188 72.632812 1.6875 64.6875 1.6875 C 56.84375 1.6875 49.363281 0.117188 42.25 -3.015625 C 35.132812 -6.160156 28.859375 -10.445312 23.421875 -15.875 C 17.992188 -21.3125 13.710938 -27.582031 10.578125 -34.6875 C 7.441406 -41.800781 5.875 -49.28125 5.875 -57.125 C 5.875 -65.070312 7.441406 -72.570312 10.578125 -79.625 C 13.710938 -86.6875 17.992188 -92.929688 23.421875 -98.359375 C 28.859375 -103.796875 35.132812 -108.082031 42.25 -111.21875 C 49.363281 -114.351562 56.84375 -115.921875 64.6875 -115.921875 C 72.632812 -115.921875 80.132812 -114.351562 87.1875 -111.21875 C 94.25 -108.082031 100.492188 -103.796875 105.921875 -98.359375 C 111.359375 -92.929688 115.644531 -86.6875 118.78125 -79.625 C 121.914062 -72.570312 123.484375 -65.070312 123.484375 -57.125 Z M 123.484375 -57.125 "/></g></g></g></svg>